<svg fill="none" height="24" viewBox="0 0 138 24" width="138" xmlns="http://www.w3.org/2000/svg" xmlns:xlink="http://www.w3.org/1999/xlink"><clipPath id="a"><path d="m0 0h138v24h-138z"/></clipPath><g clip-path="url(#a)" fill="#ff4e50"><path d="m16.0276 23.5492v-9.7804h-12.24494v9.7804h-3.78266v-23.029203h3.78266v9.747103h12.24494v-9.747103h3.7827v23.029203z"/><path d="m35.1302 18.8332h3.9555c-1.1686 3.1919-4.2298 5.1668-7.7382 5.1668-4.9182 0-8.5637-3.6068-8.5637-8.5661s3.4727-8.5329 8.3937-8.5329 8.1523 3.6759 8.1523 8.3946c0 .4868 0 .9709-.0686 1.4577h-12.692c.4114 2.2902 2.3727 3.8501 4.7811 3.8501 1.6156 0 2.9927-.5559 3.7827-1.7674zm-8.4952-5.0284h8.8408c-.3428-2.1492-1.9942-3.6068-4.3011-3.6068s-4.2297 1.4576-4.5397 3.6068z"/><path d="m45.7815.345741v23.203459h-3.6455v-23.203459z"/><path d="m49.2048 0h4.0926v4.19592h-4.0926zm3.8869 7.35185v16.19735h-3.6455v-16.19735z"/><path d="m65.8935 15.2956 6.5696 8.2536h-4.5754l-4.334-5.377-4.3697 5.377h-4.334l6.5367-8.1153-6.4325-8.08205h4.644l4.1283 5.20275 4.1612-5.20275h4.4712l-6.4681 7.94095z"/><path d="m84.8096 18.8332h3.9554c-1.1685 3.1919-4.2297 5.1668-7.7381 5.1668-4.9183 0-8.5638-3.6068-8.5638-8.5661s3.4754-8.5329 8.3937-8.5329 8.1524 3.6759 8.1524 8.3946c0 .4868 0 .9709-.0686 1.4577h-12.6921c.4115 2.2902 2.3727 3.8501 4.7811 3.8501 1.6157 0 2.9927-.5559 3.7827-1.7674zm-8.4953-5.0284h8.8409c-.3429-2.1492-1.9942-3.6068-4.2984-3.6068-2.3041 0-4.2298 1.4576-4.5397 3.6068z"/><path d="m102.431 12.0346c-.689-1.3526-2.203-1.9417-4.3698-1.9417-2.167 0-3.4041.7274-3.4041 1.9085 0 1.1091 1.067 1.56 2.957 1.7342l3.0609.2434c3.509.2766 5.539 1.8034 5.539 4.821 0 3.0177-2.719 5.2028-7.3271 5.2028-4.6083 0-7.6367-2.1851-8.3581-5.377h3.9911c.5514 1.4908 2.2027 2.1851 4.7455 2.1851 1.8566 0 3.3026-.6583 3.3026-1.8394 0-1.181-1.031-1.6291-2.924-1.8034l-3.267-.3125c-3.544-.3457-5.3654-1.8393-5.3654-4.7159 0-2.87659 2.7183-5.2387 7.1209-5.2387 4.8165 0 7.4305 2.22105 8.2565 5.1336h-3.955z"/><path d="m114.539 6.25931h1.958v2.00806h-1.958zm1.859 3.51826v7.75013h-1.744v-7.75013z"/><path d="m125.796 12.9141v4.6136h-1.744v-4.3646c0-1.1949-.642-1.9749-1.926-1.9749-1.136 0-2.173.8796-2.173 2.3566v3.9829h-1.744v-7.75013h1.744v.71363c.461-.54767 1.35-.92937 2.453-.92937 2.057 0 3.39 1.32767 3.39 3.35227z"/><path d="m132.958 12.1839c-.395-.6472-1.086-.9957-1.876-.9957-1.366 0-2.321 1.0455-2.321 2.4562 0 1.4106.955 2.4727 2.321 2.4727.79 0 1.481-.3485 1.876-.9957h1.827c-.559 1.6097-1.991 2.6221-3.703 2.6221-2.304 0-4.065-1.7426-4.065-4.0991 0-2.3566 1.761-4.08257 4.065-4.08257 1.712 0 3.144 1.01237 3.703 2.62207z"/><path d="m135.86 15.3703h2.14v2.1574h-2.14z"/></g></svg>