<svg fill="none" height="10" viewBox="0 0 10 10" width="10" xmlns="http://www.w3.org/2000/svg"><path clip-rule="evenodd" d="m8.78035.606031c-.89342.887429-1.99336 1.382899-3.04064 1.478109-1.05239.09567-2.03047-.21195-2.7207-.90218l-.42426.42427c.87187.87187 2.0678 1.21866 3.26753 1.10959.33512-.03046.67219-.09643 1.0053-.19702l-6.559178 6.55918.471404.4714 6.559264-6.55926c-.10061.33315-.16659.67026-.19706 1.00543-.10907 1.19973.23772 2.39566 1.10959 3.26753l.42427-.42426c-.69023-.69023-.99785-1.66831-.90218-2.7207.09568-1.05251.59563-2.15821 1.49143-3.05401l-.4714-.471404c-.00001.000004-.00001.000009-.00002.000013l-.00002-.000022z" fill="#111" fill-rule="evenodd"/></svg>